<svg xmlns="http://www.w3.org/2000/svg" width="323" height="159" fill="none"><path fill="#2D2D2D" d="M157.92 67.267c.704.62 2.237.455 2.858-.29-1.449.166-1.657.125-2.609-.206-.125-.041-.332-.248-.456-.041-.124.206.042.372.207.537Zm.911-9.798c.249.082.456-.083.539-.29.248-.661.746-1.034 1.45-1.157.248-.042.455-.249.414-.538-.042-.33-.29-.413-.58-.455-.953-.124-2.112.91-2.154 1.86 0 .249.083.497.331.58Zm-44.817-20.88c1.781-.537 3.811-.123 5.26 1.076.456.372.994-.29.58-.662-1.698-1.406-4.018-1.86-6.13-1.24-.539.165-.249.992.29.827Zm29.077 27.577c.58 1.571 1.367 3.101 1.657 4.755.166.95.539 1.902.953 2.729.29.537.456 1.033.497 1.653.041.869.456 1.2 1.326 1.2.869 0 1.739-.083 2.526-.331 1.698-.58 3.355-1.24 5.136-1.654.497-.124.87-.165 1.326.041 3.148 1.323 6.296.538 8.367-2.15.124-.165.248-.29.414-.372.994-.455 1.988-.91 2.941-1.447.787-.455.87-1.116.207-1.695s-1.035-1.323-1.325-2.15c-.456-1.447-.539-2.977-.787-4.465-.704-4.341-1.367-8.724-3.77-12.569-.828-1.323-1.615-2.646-3.065-3.349-3.189-1.53-8.657-.95-11.225 2.522-.166.207-.29.331-.621.29-1.243-.166-2.278.29-3.19 1.157-2.236 2.109-3.106 4.755-3.313 7.65.041.495.041.909.124 1.322.373 2.357 1.035 4.63 1.822 6.863Zm5.592-.537c.58-.414.787-.992.912-1.654.29-1.571.787-3.06.994-4.63.248-1.902.621-3.804.538-5.747-.041-.414.124-.62.497-.62 1.906-.042 3.77-.455 5.675-.497.497.042 1.035.042 1.532.083 1.906.165 2.859 1.447 3.646 3.018 1.408 2.936 2.402 5.995 2.858 9.22.372 2.522.331 4.961-1.243 7.152-1.243 1.778-3.065 2.275-5.012 2.026-3.397-.413-5.716-2.48-7.414-5.374-.042-.083-.125-.207-.125-.331-.041-.662-.455-.662-.911-.496-.373.124-.704.29-1.118.248-.622-.041-1.119-.29-1.367-.91-.207-.661.041-1.116.538-1.488Zm3.563-4.672c.289.207.538.041.704-.165.497-.538 1.077-.869 1.864-.62a.448.448 0 0 0 .58-.29c.082-.29-.042-.455-.208-.62-.331-.29-.704-.29-1.077-.33-.745 0-1.698.62-1.988 1.28-.124.249-.165.538.125.745Zm30.195-21.168c.58-.248 1.243-.538 1.906-.58.497 0 1.077.166 1.408.58.083.124.249.206.414.124.125-.083.207-.29.125-.414-.415-.579-1.077-.868-1.781-.868-.829 0-1.574.33-2.32.661-.124.083-.166.29-.124.414.083.124.248.124.372.083Zm-68.966 1.199c1.699-.786 3.894-.331 5.095 1.157.166.207.414.248.621.124.166-.124.249-.413.125-.62-1.409-1.778-4.018-2.48-6.089-1.488-.207.082-.373.33-.29.579.041.206.29.372.538.248Zm41.38 21.623c.041.413.207.827.704.868.414.041.497-.29.497-.661-.083-.373-.124-.869-.662-.869-.415.042-.58.331-.539.662ZM275.018 9.137c.662.372.911 1.034 1.201 1.695.083.207.165.538.455.455.249-.083.249-.414.249-.662 0-.868-.663-1.943-1.367-2.19-.248-.083-.497-.125-.663.123-.165.207-.083.455.125.58Zm-1.616.33c.87.704 1.367 1.613 1.698 2.647.083.33.208.62.332.91.041.124.166.248.29.206.165-.041.207-.165.207-.33v-.497c0-1.405-.911-3.06-1.947-3.68-.248-.165-.538-.371-.828-.04-.249.371.041.62.248.785ZM182.69 39.444c-.331.206-.041.702.29.496a4.014 4.014 0 0 1 3.976-.124c.332.165.622-.331.29-.497-1.367-.744-3.148-.702-4.556.125Zm92.41 7.483c-.207.165-.372.372-.207.62.207.29.497.165.746.041 1.781-1.116 2.444-2.935 3.107-4.589 0-.372-.001-.62-.249-.703-.29-.124-.456.042-.621.29a3.267 3.267 0 0 0-.332.661c-.58 1.323-1.242 2.646-2.444 3.68ZM224.525 2.81c.29.207.414-.082.58-.289.58-.827 1.284-1.488 2.361-1.612.29-.042.58-.124.539-.497-.042-.372-.373-.413-.705-.413-1.076.041-2.526 1.158-2.858 2.191-.041.248-.165.496.083.62Zm49.498 42.13c-.165.166-.289.372-.455.58a.39.39 0 0 0 .041.536c.166.166.332.207.497.125.166-.083.332-.166.497-.29a10.087 10.087 0 0 0 3.024-4.382c.083-.166.083-.372.124-.455 0-.33-.041-.538-.248-.662-.207-.082-.373.042-.497.207-.207.29-.456.62-.622.951-.621 1.199-1.366 2.357-2.361 3.39Zm-66.853 41.84c-.331 1.861-1.947 3.39-3.852 3.515a.46.46 0 0 0-.456.455c0 .206.207.454.456.454 2.278-.165 4.308-1.943 4.68-4.175.042-.248-.041-.455-.29-.538-.207-.082-.497.042-.538.29Zm-2.195 5.54c-.539.166-.332.993.248.828 2.113-.58 3.811-2.274 4.474-4.341.165-.538-.663-.786-.829-.249-.621 1.82-2.112 3.267-3.893 3.763Zm15.035-42.377c.166.124.415.165.622.207.248.041.414-.083.414-.414-.083-.372-.373-.62-.663-.91-.911-.868-1.74-1.777-2.402-2.852-.125-.248-.249-.662-.622-.496-.414.165-.289.537-.165.868.538 1.488 1.574 2.646 2.816 3.597Zm1.533-1.447c.331.083.621.041.663-.372-.083-.331-.29-.58-.58-.786-1.243-1.033-2.527-2.067-3.397-3.473-.124-.206-.331-.413-.621-.248-.207.124-.207.372-.166.579.249 1.034 3.065 4.052 4.101 4.3Zm-60.889 9.881c-.414-.083-.538.29-.538.62 0 .58.414 1.282.787 1.24.372-.04.455-.289.497-.66-.125-.414 0-1.076-.746-1.2Zm-88.848 8.269a3.53 3.53 0 0 0 2.07.785c.166 0 .415-.04.622-.082.249-.083.539-.165.456-.538-.083-.289-.373-.289-.621-.248-.829.207-1.533-.082-2.196-.496-.207-.124-.414-.372-.621-.082-.166.289.041.496.29.661ZM43.308 78.223c1.284.373 2.568.827 3.81 1.406.25.124.58.083.705-.207.124-.206.083-.578-.207-.703a36.804 36.804 0 0 0-4.06-1.488c-.62-.207-.91.786-.248.992Zm-3.604 3.515c1.989.454 4.018.703 6.048.785.663.042.663-1.033 0-1.033a33.77 33.77 0 0 1-5.758-.745c-.662-.165-.952.827-.29.993Zm32.143-25.096c-.083-.331-.29-.497-.621-.662-.911-.455-2.403-.082-3.107.786-.165.206-.373.496-.207.703.249.289.456-.083.663-.207.87-.538 1.74-1.075 2.817-.372.207.165.372.041.455-.248Zm4.847 1.364c-.373-.041-.415.29-.373.579 0 .29 0 .703.414.744.373 0 .29-.372.331-.579 0-.33.042-.703-.373-.744Zm-6.13 1.323c-.042.29-.084.744.29.703.579 0 .372-.62.496-.91 0-.29.124-.703-.248-.703-.539.042-.497.538-.539.91Zm42.58.62a56.662 56.662 0 0 0 3.148-1.612c.331-.166.953-.414.787-.786-.207-.413-.787-.082-1.16.042-.911.289-1.781.785-2.734 1.24-.041-.662-.082-1.2-.124-1.736-.041-.29-.166-.538-.497-.497-.29 0-.373.29-.373.538 0 .744-.041 1.447-.041 2.191-.042.62.414.91.994.62Zm140.997 20.176c-.331.083-.538.248-.538.58 0 .33.207.495.538.495.332 0 .539-.248.539-.579 0-.289-.207-.454-.539-.496Zm67.641 6.657c-1.118-1.695-2.858-2.77-4.888-2.73-.58 0-.58.91 0 .87 3.563-.125 5.344 3.513 5.178 6.614-.166 2.936-1.491 5.83-2.734 8.434-2.195 4.548-5.095 8.765-8.533 12.486-7 7.608-15.988 13.313-25.639 16.993a87.854 87.854 0 0 1-11.101 3.349c-.994-4.3-2.195-8.6-3.065-12.941-1.284-6.367-2.693-12.693-4.06-19.018-.124-.496-.165-.868.539-.827.456.041.58-.248.58-.62-.042-.331-.083-.662-.166-.951-.58-2.15-1.16-4.259-1.698-6.409-1.077-4.217-1.533-8.6-2.651-12.816-.124-.496.207-.455.456-.58 2.112-1.157 4.39-2.108 5.84-4.216 1.367-1.944 1.408-1.944-.249-3.639-.331-.33-.414-.537-.082-.91 1.201-1.364 1.905-3.017 2.485-4.754 1.16-3.514 1.45-7.07 1.284-10.75 0-.33-.166-.743.207-.95.87-.538 1.491-1.364 2.278-1.985 2.113-1.778 3.272-4.134 4.184-6.615.041-.165.083-.33.083-.496 0-.248 0-.537-.249-.62-.29-.083-.373.207-.497.413-.539.993-1.077 1.985-1.615 2.936-1.202 2.067-2.9 3.68-4.722 5.168-.456.372-.705.62-.705 1.199.042 2.522-.041 5.085-.455 7.566-.456 2.894-1.243 5.705-3.024 8.145-.29.413-.497.537-.87.124-.124-.124-.29-.248-.414-.372-1.201-1.117-1.16-1.117-.331-2.481 1.491-2.48 2.071-5.25 2.609-8.062.58-3.018.042-6.078-.083-9.096-.041-1.53.29-2.853 1.077-4.3.166.496 0 .786 0 1.116 0 .414 0 .786.456.951.414.124.704-.124.828-.454.704-1.613 2.071-2.729 3.231-3.97.373-.413.746-.826 1.077-1.57-2.278.537-3.065 2.48-4.473 3.68-.208-.456-.083-1.159-.705-1.241-.621-.083-.455-.414-.372-.744.58-2.605 1.242-5.21 1.656-7.856.58-3.638.995-7.359 1.492-10.997.372-2.688.455-5.375.58-8.063.041-.496 0-1.033-.58-1.24-.539-.207-.663.372-.994.662-.705-1.447-.787-2.894-.622-4.383.166-1.323-.124-1.695-1.45-1.57-1.201.123-2.361.371-3.562.413-2.651.124-5.219-.373-7.828-.538-3.148-.207-6.338-.703-9.361.62a.354.354 0 0 1-.29 0c-1.947-.496-3.811-1.075-5.634-1.902-2.402-1.075-4.805-2.274-7.455-2.687-2.651-.455-5.178-1.323-7.746-1.984-1.036-.249-1.409-.083-1.574.992-.29 1.819-.539 3.597-.829 5.416-.869 5.292-1.698 10.584-2.609 15.876-.704 3.928-1.491 7.814-2.237 11.742-.248 1.364-.041 1.736 1.326 2.067 2.816.662 5.674 1.158 8.532 1.695 1.74.33 3.48.827 5.219.951 2.527.207 4.971.992 7.498 1.24.372.042.662.207.621.662-.042.579.331 1.034.787 1.364.953.662 1.988.993 3.148 1.034 3.811.165 7.58-.29 11.391-.29h8.822c-.207.951-.497 1.861-.414 2.77.124 1.324.124 2.647.166 3.97.124 3.72-.456 7.318-1.698 10.832a13.288 13.288 0 0 1-1.616 3.266c-.166-.207-.207-.372-.331-.496-.704-.744-1.077-.703-1.657.124-.166.29-.331.579-.539.827-1.366 1.819-2.692 3.762-5.053 4.341-1.45.33-2.319 1.158-3.106 2.315-.539.827-1.202 1.571-1.657 2.44-.249.496-.539.496-.953.206l-3.604-2.853c-.787-.62-1.408-1.405-2.526-1.488-1.574-.083-3.024-.703-4.391-1.447a8.214 8.214 0 0 1-2.899-2.687c-.208-.29-.29-.62-.705-.58-.455 0-.579.373-.662.704-.125.454-.332.496-.704.248a11.932 11.932 0 0 1-1.616-1.24c-3.272-3.101-5.095-6.946-5.882-11.329-.248-1.323-.497-2.605-.165-3.969.248-1.116-.083-2.233-.663-3.225-.787-1.24-1.616-2.398-2.568-3.473-.704-.827-1.657-1.199-2.693-1.447-.704-.165-1.118.248-1.035.951 0 .124.166.29-.042.455-.828-.703-1.698-1.364-2.402-2.191-.249-.29-.538-.58-.911-.248-.332.29-.125.62.083.868 1.449 1.53 2.858 3.1 5.012 3.597.29.083.579.29.787-.083.207-.372 0-.62-.249-.868-.331-.33-.663-.703-.994-1.034.787.083 1.367.496 1.822 1.034.58.703 1.077 1.447 1.657 2.15 1.077 1.282 1.45 2.811 1.243 4.382-.207 1.737.041 3.39.456 5.003 1.284 4.796 3.355 9.096 7.87 11.783.372.207.248.413.124.662-.373.785-.829 1.53-1.119 2.356-.248.703-.538.62-1.035.248-3.272-2.439-5.84-5.416-7.456-9.178-1.035-2.398-2.154-4.796-2.154-7.483 0-.455-.373-.58-.662-.745a19.135 19.135 0 0 1-4.474-3.886c-.787-.91-1.45-1.902-2.071-2.935-.124-.248-.29-.497-.621-.373-.29.124-.207.414-.166.662.083.744.414 1.364.828 1.943a18.45 18.45 0 0 0 5.551 5.623c.331.207.621.413.704.827a33.965 33.965 0 0 0 3.065 8.847c1.698 3.308 4.225 5.789 7.125 7.98.414.33.497.455.248.95-.538.993-.456 1.365.414 2.11.29.248.622.454.912.661 1.325.785 2.692 1.488 4.142 1.943.497.165.662.414.704.91.166 2.439.083 4.92.083 7.359 0 4.134.124 8.227.414 12.362.041.455 0 1.075.538 1.199.705.165.539.579.456 1.034-1.74 8.434-3.894 16.785-5.26 25.302-.373 2.398-.746 4.796-1.077 7.194-8.492-.579-16.9-1.612-25.102-2.811-10.521-1.53-21-3.432-31.438-5.416a50.013 50.013 0 0 0-.911-4.3c-1.285-4.837-2.486-9.675-3.521-14.553-.58-2.812-1.409-5.623-1.906-8.476-.124-.662 0-1.199.663-1.447.911-.372 1.823-.785 2.817-.992 2.195-.496 4.349-.992 6.461-1.695.29-.124.622-.207.58-.538-.041-.455.207-.496.539-.579 3.106-.661 6.13-1.653 9.112-2.604.953-.29 1.864-.745 2.776-1.117.497-.206.911-.62.745-1.116-.248-.62.042-.827.497-1.116a.719.719 0 0 0 .249-.248c.29-.91 1.118-.993 1.822-1.323 1.243-.538 2.444-1.24 3.645-1.86.87-.456 1.74-.91 2.776-1.117 1.367-.248 1.988-1.034 2.029-2.44.042-.537.125-1.033.332-1.57.331-.827.207-1.489-.456-1.985-.497-.372-.58-.744-.538-1.282.082-1.157-.208-2.191-1.243-2.853-.249-.165-.497-.248-.746 0-.248.249-.124.497.083.703.704.662.829 1.53.704 2.44-.083.703.125 1.281.746 1.695.248.165.497.413.373.703-.332.744-.332 1.57-.456 2.356-.124.786-.746 1.117-1.491.951-.29-.082-.621-.082-.953-.124-.29-.041-.663.124-.828-.165-.166-.29.124-.579.29-.868.041-.083.083-.124.124-.166.663-1.033.414-1.53-.787-1.57-.083 0-.207 0-.207-.166.414-.455 1.077-.703 1.491-1.24.497-.704.331-1.2-.538-1.365-.332-.041-.705 0-1.077-.207.58-.413 1.118-.785 1.615-1.157.207-.166.456-.414.331-.662-.248-.455-.124-.95-.165-1.447-.497-4.506-1.284-8.972-1.823-13.478-.29-2.233-.787-4.465-.953-6.74-.041-.578-.414-.743-.952-.454-2.693 1.447-5.551 2.398-8.409 3.308-1.284.413-2.568.826-3.935 1.24 0-.248.125-.33.249-.455a66.338 66.338 0 0 0 5.882-6.408 17.372 17.372 0 0 0 2.236-3.763c.332-.785.125-1.157-.662-1.405-.456-.124-.87-.29-1.326-.455-2.734-1.034-5.426-2.026-8.118-3.142-.953-.414-1.284-.248-1.823.62-.414.661-.787 1.323-1.243 1.984-2.775 4.01-5.84 7.732-9.568 10.915-1.325 1.117-2.444 2.44-3.231 4.01-.124.249-.331.62 0 .786.539.248.994.703 1.657.786 1.201.165 2.403.083 3.687.248-.456.29-.497.661-.58 1.033a24.865 24.865 0 0 0-.207 3.928c.041 4.135.29 8.228 1.077 12.28.082.537.082.702-.539.537-1.657-.414-3.355-.744-4.97-1.2-1.16-.33-2.279-.785-2.734-2.066-.124-.372-.414-.62-.87-.538-.456.083-.58.455-.663.868-.414 1.985-2.029 3.06-4.018 2.688-2.153-.414-4.017-1.323-5.55-2.894-.456-.455-.87-.993-1.657-.91-1.905.165-3.686.62-5.426 1.447-2.237 1.034-3.521 2.729-4.059 5.127-.497 2.274-.373 4.506-.083 6.78.373 2.73 1.035 5.375 3.024 7.442.207.207.248.414.165.662-.455 1.323-.455 2.728-.787 4.093-1.201 5.333-2.278 10.708-3.106 16.124-.207 1.282-.456 2.564-.704 3.845-2.983-.537-6.007-1.033-9.03-1.53-14.042-2.273-28.208-3.886-42.374-4.299-.456-1.613-.911-3.267-1.367-4.879-.828-2.935-1.45-5.954-2.485-8.848-.166-.496-.083-.703.497-.703.373 0 .746-.123 1.16-.206.621-.124.787-.496.621-1.075-.58-1.86-1.118-3.68-1.657-5.54a135.402 135.402 0 0 0-2.61-7.897c-.165-.413-.165-.662.373-.744 3.024-.455 5.8-1.654 8.533-2.977 3.604-1.737 7.042-3.845 9.817-6.78.083-.083.124-.166.207-.207 1.201-.455 1.905-1.53 2.941-2.191.331-.207.373-.58.083-.91-.911-1.034-1.409-2.315-2.32-3.349.414-.207.746-.372 1.077-.579 1.698-1.033 3.231-2.191 4.556-3.68.208-.206.373-.537.663-.165.622.744 1.326.703 2.071.248.249-.124.497-.206.746-.29 4.308-1.694 8.118-4.05 10.397-8.268.248-.455.248-.744-.042-1.116-.538-.745-1.077-1.447-1.615-2.15-1.989-2.605-4.142-5.044-5.716-7.938-.456-.827-1.077-1.571-1.699-2.316-.455-.578-.828-.496-1.118.166-.373.95-.953 1.736-1.574 2.522-2.817 3.597-6.172 6.532-10.272 8.517-.746.372-.787.661-.166 1.24.704.703 1.325 1.488 1.947 2.274 1.077 1.364 1.077 1.364.124 2.853-.787 1.281-1.533 2.563-2.32 3.803-.083.166-.124.662-.538.248-.497-.496-.87-.289-1.201.166-2.734 3.349-6.13 5.87-9.859 7.938-3.603 2.026-7.373 3.473-11.68 2.48-.622-.165-1.201.331-1.284.952-.125.826-.497 1.57-.912 2.273-1.74 2.895-5.964 3.184-8.16.62-.58-.702-1.118-1.405-1.532-2.232-.249-.537-.621-.703-1.201-.827-2.196-.372-4.432-.29-6.628-.082-3.313.248-5.923 1.736-7.828 4.423-1.906 2.688-2.941 5.747-3.563 8.972-.414 2.15-.497 4.341-.33 6.532.04.414.04.827-.498.993-.248.082-.29.372-.331.62-.083 1.282-.207 2.522-.29 3.804-.042.661.165.992.828.909.456-.041.621.124.58.579-.083.744-.041 1.488.041 2.274l.373 2.729c.124.744.373 1.488.87 2.067.621.703 1.616.868 2.237 1.654.124.165.455.248.58.496.124.165.29.206.497.206.787-.124 1.201-.496 1.201-1.323 0-1.364-.041-2.728-.041-4.093 0-.496-.042-.992-.042-1.447 0-.289-.041-.579-.373-.62-.331-.041-.455.248-.497.496-.124.496-.124.951-.124 1.447.041 1.406.041 2.77.083 4.176-.414-1.282-.58-2.605-.746-3.928-.041-.33.083-.951-.455-.868-.456.041-.29.579-.29.91 0 1.033.083 2.067.29 3.101-.083-.125-.166-.249-.207-.373-.539-.992-.58-2.108-.746-3.183-.041-.248-.083-.579-.456-.538-.331.042-.331.331-.331.579-.041.868-.041 1.695.248 2.729-.414-.455-.58-.827-.662-1.199a39.619 39.619 0 0 1-.746-5.416c-.041-.414.166-.414.497-.414 1.326.042 2.651.124 3.935.166.332 0 .539.124.663.455.538 1.447.953 2.935.456 4.465-.083.289-.249.661.165.785.414.124.622-.206.746-.537.207-.703.331-1.406.207-2.15-.124-.992-.414-1.943-.787-2.935.704-.042 1.367-.042 1.367-1.034-.083-2.522.124-5.044.456-7.566.124-.91.29-1.778.455-2.646.166-.868.373-1.695.621-2.729.125.29.166.372.166.455.663 4.506 1.077 9.054.704 13.602-.083 1.117.166 1.406 1.284 1.241.787-.083.704.206.539.744-.621 2.398-1.284 4.796-1.781 7.235-.414 1.902-.787 3.762-1.201 5.664-18.143 2.688-35.913 8.31-51.487 18.109-2.278 1.447-4.473 2.977-6.627 4.548-.456.331 0 1.116.455.744 16.859-12.445 36.907-19.432 57.493-22.533-.29 1.241-.539 2.481-.829 3.721-.662 3.06-1.408 6.119-1.988 9.22-.663 3.349-1.367 6.698-2.32 9.964-.33 1.199-.62 2.439-.952 3.68-.083.331-.166.827.29.827.704-.042 1.242.372 1.905.454.663.083.58.331.332.786-.663 1.24-1.367 2.481-1.947 3.762-.87 1.902-.539 3.763.953 5.086 2.568 2.274 5.508 3.845 8.947 4.341.787.124 1.45-.124 1.946-.703 1.16-1.323 1.036-2.729-.331-3.886-1.118-.951-2.361-1.613-3.645-2.274-.497-.248-.87-.621-.87-1.241 0-1.199.207-2.315.87-3.349.166-.248.331-.537.041-.785-.331-.248-.58 0-.787.248-.455.579-.621 1.323-.828 2.026-.663 2.067-.124 3.266 1.822 4.258 1.077.538 2.113 1.117 2.983 1.985.497.496.828 1.033.455 1.778-.414.826-.911 1.033-1.78.868-2.817-.579-5.344-1.861-7.58-3.638-1.616-1.282-1.865-2.646-.954-4.548.622-1.282 1.285-2.564 1.906-3.887.165-.33.373-.372.704-.33 1.45.206 2.817.578 4.184.95 1.325.373 2.65.703 3.852 1.365.91.496 1.16.455 1.698-.455.746-1.364 1.491-2.729 2.278-4.093.414-.744.373-.91-.456-1.282a152.916 152.916 0 0 1-3.81-1.653c-.207-.083-.622-.166-.456-.497.124-.33.456-.206.704-.124.911.29 1.823.538 2.651.993.912.496 1.036.496 1.367-.455 1.16-3.142 2.278-6.284 3.48-9.385 1.16-3.06 2.278-6.119 3.106-9.261.538-2.15 1.243-4.218 2.03-6.285.165 0 .331 0 .497-.041-.29 1.033-.539 2.15-.994 3.101-.87 1.778-.456 3.266.497 4.837 1.656 2.77 3.272 5.54 4.68 8.434 1.989 4.176 4.557 8.021 6.462 12.197.249.496.58.661 1.118.455l.622-.248c.497-.249.787-.166.91.454.332 1.406.746 2.77 1.16 4.176.25.91.87 1.488 1.74 1.819.704.248 1.409.496 2.113.538 3.77.165 7.124-.91 10.065-3.267.787-.62 1.491-1.405 1.119-2.48-.373-1.116-1.409-1.199-2.444-1.199-1.74 0-3.521.041-5.26.413-.954.207-1.865.207-2.32-.909-.083-.166-.249-.331-.456-.248-.207.082-.249.289-.29.496-.124.827.704 1.736 1.698 1.86.704.083 1.367-.041 2.03-.165 1.698-.331 3.396-.372 5.095-.29.331 0 .704.083.87.455.124.331-.125.62-.332.827-.165.207-.373.372-.58.579-.704.62-1.532 1.075-2.361 1.447-2.609 1.24-5.302 1.861-8.16 1.282-.87-.166-1.49-.62-1.74-1.571-.33-1.282-.662-2.564-1.076-3.804-.207-.662-.124-.868.58-1.075 2.775-.703 5.591-1.364 8.325-2.315.622-.207.87-.538.663-1.199-.29-.91-.538-1.861-.828-2.812-.332-1.075-.373-1.075-1.492-.703-1.16.414-2.36.786-3.396 1.489-.207.124-.539.331-.704 0-.166-.331.165-.455.414-.579.87-.496 1.74-1.034 2.692-1.323.456-.124.622-.372.414-.868-.29-.868-.372-1.737-.62-2.605a1351.865 1351.865 0 0 1-4.971-17.24c13.71.372 27.42 1.943 41.007 4.093 3.313.537 6.668 1.116 9.982 1.695-.663 3.142-1.408 6.284-1.905 9.468-.622 3.845-1.574 7.69-2.278 11.535-.208 1.157.124 1.488 1.325 1.488.994 0 1.988.041 2.982.041.456 0 .58.166.539.662-.207 1.571-.456 3.142-.414 4.713.041 2.439 1.077 3.928 3.396 4.713 2.195.745 4.432 1.158 6.71 1.323 1.699.124 3.314-.206 4.764-1.157 1.242-.827 1.657-2.357.911-3.556-.58-.951-1.533-1.323-2.568-1.53-1.491-.289-2.982-.537-4.432-.909-.704-.166-1.367-.496-1.243-1.406.042-.331-.165-.579-.497-.62-.331-.041-.538.124-.704.413-.207.497-.124.993.124 1.489.497.992 1.409 1.364 2.403 1.612 1.325.29 2.651.496 3.976.744.497.083.994.207 1.408.538.829.579.787 1.571-.041 2.108-1.036.621-2.112.993-3.314.951a24.277 24.277 0 0 1-6.668-1.199c-2.072-.661-2.776-1.736-2.651-3.845.082-1.405.248-2.77.331-4.134.041-.579.207-.703.746-.662 1.615.166 3.189.29 4.804.455.415.042.539-.082.58-.496.125-2.274.166-4.548.042-6.78-.125-2.688-.249-5.416-.207-8.104 0-.579 0-1.157.248-1.778.29.331.249.621.249.951l.372 6.491c.166 3.06.373 6.119.083 9.22-.041.496.125.579.539.579 1.698 0 3.355-.041 5.053 0 .704.041.787-.207.746-.827-.497-4.3-.953-8.558-1.367-12.858-.414-4.3-.746-8.641-.746-12.982 0-.331-.041-.662.166-.992.207.33.207.661.248.951.58 3.845.746 7.772 1.16 11.617.497 4.838 1.036 9.633 1.491 14.471.042.455.207.62.705.62 1.532 0 3.023-.083 4.514-.207.622-.041.829.124.87.703.125 1.034.29 2.026.58 3.018.497 1.819 1.698 3.018 3.48 3.638 3.148 1.117 6.296.951 9.444.207.704-.165 1.449-.331 2.071-.744.828-.537 1.118-1.323 1.035-2.274-.041-.868-.663-1.282-1.408-1.612-.539-.207-1.077-.29-1.657-.331-1.491-.124-2.982 0-4.432-.538-.746-.289-1.326-.744-1.284-1.653 0-.455-.207-.786-.663-.786-.456.041-.663.414-.663.827-.041.786.166 1.488.746 2.067.87.868 1.947 1.199 3.107 1.323 1.325.124 2.692.166 4.017.29.373.041.87.124.87.702 0 .538-.331.869-.828.993-3.272.951-6.586 1.364-9.9.165-1.16-.413-2.029-1.158-2.402-2.357-.249-.785-.414-1.529-.58-2.356-.29-1.447-.29-1.489 1.242-1.53.539 0 .663-.207.58-.703-.207-1.116-.372-2.191-.621-3.307-1.201-5.334-2.154-10.708-2.237-16.207v-1.365h.207l.249 1.365c.497 3.266.87 6.532 1.45 9.757.58 3.349 1.532 6.615 1.946 9.964.042.413.29.372.58.331 2.113-.124 4.184-.29 6.255-.703 1.698-.331 1.657-.331 1.243-1.943-2.071-7.732-4.225-15.463-5.551-23.401-.207-1.365-.497-2.688-.414-4.093.124.496.29.951.414 1.447.953 4.01 1.864 8.062 2.9 12.072 1.242 4.92 2.568 9.799 3.852 14.678.083.248.083.62.538.496.829-.166 1.616-.29 2.444-.496.621-.166.787-.621.497-1.199-1.574-3.06-2.444-6.367-3.314-9.634-.289-1.075-.497-2.15-.704-3.266 10.935 2.067 21.871 4.052 32.889 5.582 7.621 1.075 15.491 2.026 23.361 2.563-.248 1.943-.538 3.928-.787 5.871-.083.703.249 1.075.87 1.24.249.083.538.083.828.124.373 0 .415.207.415.538-.166 1.488-.29 2.977-.415 4.465-.082.951.125 1.778.663 2.563 1.201 1.613 2.403 3.266 3.852 4.672.622.62 1.284 1.199 2.071 1.613 1.616.909 3.397.62 4.722-.703.953-.951 1.077-3.142.332-4.548-.622-1.158-1.574-2.026-2.486-2.936-.952-.951-1.532-1.943-1.491-3.307v-1.695c.746.289 1.367.661 2.113.703.414 0 .621-.083.745-.497.29-.992.663-1.943 1.077-2.894.207-.496.083-.702-.414-.785-1.284-.207-2.568-.372-3.893-.579-.373-.041-.705-.083-1.077-.248.248-.331.538-.248.828-.248 1.077.083 2.112.124 3.189.289.622.083.912-.041 1.077-.703.207-.826.415-1.612.622-2.439 4.349 0 8.657-.207 12.964-.62.622 1.86 1.202 3.762 1.74 5.664.456 1.654.621 1.737 2.278 1.24.622-.165.746 0 .829.538.165 1.282.331 2.563.58 3.804.372 1.901 1.408 2.811 3.313 3.142 1.657.248 3.314.248 4.971.413 2.319.207 4.432-.331 6.503-1.281 1.118-.497 1.45-1.489.87-2.564-.663-1.24-1.698-2.026-3.107-2.315-1.077-.207-2.154-.414-3.231-.496-1.905-.166-2.899-1.282-3.562-2.894-.207-.538-.207-.786.456-.993 1.16-.33 2.319-.578 3.396-1.116.332-.165.622-.331.539-.785-.166-.827-.332-1.654-.456-2.481-.083-.62-.331-.62-.828-.414-1.367.621-2.734 1.282-4.184 1.613-.414.124-.994.496-1.201-.124-.166-.579.538-.62.911-.868a.773.773 0 0 1 .332-.083c.952-.248 1.864-.62 2.733-1.034.415-.206.456-.413.373-.827 0-.082-.041-.165-.083-.289 4.184-.951 8.285-2.191 12.261-3.804 9.361-3.721 18.101-9.343 24.935-16.744 3.356-3.68 6.255-7.773 8.45-12.238 1.616-3.928 4.35-9.674 1.533-13.974Zm-76.878-48.373a23.115 23.115 0 0 0-.248 2.44c-.041.66-.497 1.322-1.118 1.198-5.799-.95-11.557-2.232-17.314-3.266-.912-.165-1.823-.33-2.734-.455-.497-.083-1.036-.95-.953-1.406.787-4.258 1.698-8.392 2.402-12.692.87-5.499 1.74-11.163 2.61-16.662.124-.868.373-1.82.456-2.687.041-.455.787-1.075 1.201-.91 4.349 1.571 8.988 1.778 13.213 3.845 1.864.91 4.557 2.315 6.669 2.688.621.082-.373.95-.331 1.281-.208 2.564-.663 5.086-.994 7.607-.415 3.308-.746 6.616-1.285 9.882-.621 3.06-1.076 6.077-1.574 9.137Zm.829 3.514c-.083-.041-.166-.083-.166-.207v-.372c.042-1.323.207-2.604.414-3.927.249-1.406.497-2.77.829-4.176.29-1.24.58-2.48.704-3.721.124-1.282.249-2.605.373-3.886.207-2.605.621-5.169.952-7.732.083-.62.166-1.24.208-1.82a5.63 5.63 0 0 1 .082-1.86c.042-.165.042-.289.083-.454 0-.166.042-.29.042-.455.041-.414.124-1.075.372-1.571 0-.042 0-.083.042-.124.248-.414.497-.786.828-1.075.704-.62 1.616-.538 2.527-.496 1.491.041 2.941-.042 4.432 0 2.9.082 5.758.537 8.657.496.704 0 1.408-.042 2.113-.124.538-.042 1.076-.166 1.615-.207.331-.041.746 0 .953.29.29.371.207.95.124 1.405-.083.62-.249 1.24-.414 1.86-.166.662-.207 1.324-.249 2.027a154.254 154.254 0 0 1-.29 4.34c-.207 2.895-.414 5.83-.911 8.683-.497 2.853-1.201 5.664-1.45 8.558-.083.744-.124 1.489-.207 2.233-.041.496-.083 1.033-.331 1.53-.373.702-1.16.702-1.823.785-1.408.166-2.775.372-4.183.496-1.367.124-2.776.207-4.142.166-1.45-.042-2.858-.166-4.308-.207-1.367-.041-2.734.041-4.142.041-.746 0-1.533.124-2.278-.124-.208-.124-.332-.248-.456-.372Zm22.036 2.522c-1.698.33-3.397.124-5.095.041-1.574-.082-3.189-.124-4.763-.165-1.574-.083-3.107-.207-4.681-.083-1.367.083-2.692.248-4.018.29-.994.041-2.195-.041-2.899-.827-.166-.166 0-.496.248-.413.125.04.29-.042.415-.042.082 0 .124 0 .165.041 2.61 0 5.178-.04 7.746.083 2.444.124 4.929.248 7.331-.165 1.285-.207 2.61-.042 3.811-.62.332-.166.787.124 1.326.372-.87.33-1.657.082-2.361.578.911.083 1.781.166 2.692.249v.165c.041 0 .083 0 .124.041.207.042.249.414-.041.455Zm.828-.372c-.165 0-.331-.207-.207-.372 0-.041.042-.041.042-.083h-.042c.083-1.033.787-1.902.58-3.1-.538.744-.58 1.57-1.035 2.439 1.366-9.51 3.438-18.688 3.438-28.114h.455c.042 1.075.124 2.108.166 3.183.041-.207.041-.455.124-.661.042-.248.124-.538.29-.786 0-.083.041-.124.083-.165.166-.207.373-.372.663-.372.124 0 .207.082.248.165.29.827.249 1.778.166 2.646-.083.95-.249 1.902-.414 2.853-.166.95-.249 1.943-.415 2.935-.207 1.117-.414 2.233-.579 3.39-.415 2.274-.787 4.59-1.202 6.864-.207 1.157-.414 2.273-.58 3.431a68.372 68.372 0 0 0-.455 3.06c-.166.744-.124 2.811-1.326 2.687ZM104.528 54.12c-.248-.248-.041-.372.125-.455.662-.33 1.284-.703 1.905-1.034 3.976-2.274 6.959-5.54 9.485-9.26.249-.414.332-.332.58 0 1.077 1.322 1.699 2.893 2.693 4.258 1.574 2.274 3.396 4.424 5.053 6.615.704.91.704.992 0 1.86-1.45 1.86-3.106 3.473-5.136 4.714-1.657 1.033-3.479 1.736-5.261 2.522-.372.165-.538-.083-.745-.249-.953-.744-1.657-1.736-2.693-2.356-.289-.166-.579-.372-.869-.538-.249-.124-.456-.206-.332-.455.332-1.075.332-2.067.249-3.059-.042-.248-.083-.538-.166-.785-.083-.249-.248-.497-.538-.538-.332-.041-.497.165-.663.372-.29.455-.621.868-.911 1.323-.166.248-.29.248-.456 0-.704-1.033-1.45-2.067-2.32-2.935Zm-.787 10.129c1.574-2.44 3.066-4.961 4.888-7.483.166 1.157.083 2.108-.29 3.018-.207.537-.166.827.497.992.911.248 1.533.951 2.196 1.53.331.29.331.579 0 .91-1.409 1.488-3.024 2.687-4.764 3.762-.373.207-.58.165-.911-.166-.58-.661-.953-1.488-1.616-2.067-.124-.124-.124-.29 0-.496ZM67.912 76.983c.953 2.026 2.485 3.39 4.846 3.68 3.024.413 5.717-1.323 6.752-4.424.083-.207.124-.414.207-.62.083-.29.083-.62.58-.455.456.124.58.29.497.744-.29 1.82-1.118 3.473-2.36 4.713-1.782 1.696-4.06 2.316-6.504 1.571-2.237-.661-4.018-1.943-5.053-4.134-.373-.744-.912-1.406-1.119-2.274.953-.041 1.657.165 2.154 1.2Zm1.367 26.957c-.083.206-.207.496-.331.785-1.45 2.563-3.397 4.548-6.09 5.788-.33.124-.786.455-.993.124-.207-.372.331-.579.621-.744 2.775-1.406 4.805-3.514 6.296-6.202.083-.124.166-.372.331-.33.249.082.207.33.166.579Zm7.994 10.666a.968.968 0 0 1 .29-.289c.042.083.042.207.042.289h-.332Zm5.717-15.173c-4.433.496-8.865 1.075-13.338 1.364-2.817.207-5.592.538-8.367.786-.663.041-.787-.124-.746-.744a47.76 47.76 0 0 0-1.367-14.553c-.082-.331-.082-.58.125-.827.538-.786 1.118-1.53 2.07-1.902.208-.083.456-.166.415-.455-.042-.29-.331-.33-.58-.33-.497.04-.87.289-1.243.537-1.532 1.157-2.195 2.811-2.61 4.589-.58 2.357-1.035 4.755-1.076 7.194-.042 1.488 0 2.935-.042 4.424-.041.661-.248.827-.87.827-2.153-.083-4.307-.124-6.461-.166-.373 0-.456-.165-.414-.496.041-1.034.083-2.108.124-3.06 1.615-.082 3.107.042 4.598.125.29 0 .58 0 .58-.414 0-.496-.332-.372-.58-.413-1.077-.083-2.154-.207-3.19-.29-.248-.041-.373-.082-.414-.372-.124-2.274-.207-4.506.29-6.739.663-3.142 1.615-6.119 3.48-8.765 1.656-2.315 3.934-3.68 6.792-3.928a46.315 46.315 0 0 1 4.143-.206c.497 0 .704.165.87.62 1.035 2.522 2.36 4.796 4.97 6.078 3.024 1.488 5.923 1.199 8.45-.786 1.615-1.24 2.526-3.142 2.9-5.21.124-.702.29-.909 1.076-.868 2.237.083 4.432-.537 6.462-1.364 4.929-2.026 9.154-5.085 12.758-9.013.372-.413.538-.496.952 0 1.119 1.406 2.154 2.894 3.148 4.382.497.703 1.119 1.24 1.657 1.902.249.331.249.538-.124.744-.207.124-.414.29-.621.414-.995.703-.995.703-1.823-.248a47.474 47.474 0 0 1-2.237-2.812c-.207-.289-.455-.661-.87-.372-.372.29-.124.62.042.91a15.491 15.491 0 0 0 2.361 3.06c.414.454.497.785 0 1.198-.663.538-1.243 1.2-1.905 1.695-4.722 3.68-10.024 6.202-15.823 7.608-.332.082-.497 0-.58-.33-.083-.249-.166-.456-.249-.662-.124-.29-.207-.703-.621-.58-.414.125-.249.497-.166.828 1.119 3.845 2.196 7.648 3.48 11.452.414 1.282.745 2.563 1.16 3.845.165.537 0 .62-.456.662-2.071.289-4.1.454-6.13.661ZM193.79 86.864c.124.496.58.496.994.496.373 0 .704 0 1.118.166-.331.165-.662.33-.952.537-.415.29-.787.662-.456 1.158.29.413.083.496-.248.62a91.838 91.838 0 0 1-10.894 3.308c-.497.124-.663 0-.704-.455-.208-1.489-.456-2.977-.87-4.424-.042-.165-.125-.372.124-.579a54.94 54.94 0 0 0 2.982-2.191c1.202-.91 2.527-1.612 4.018-2.274-.207 1.406.042 1.695 1.409 1.571 1.698-.165 3.396-.207 5.094 0 .166.041.332-.041.497.166-.414.496-.952.744-1.491 1.033-.331.124-.745.33-.621.868Zm-5.84-28.114c3.313-.992 6.627-1.984 9.816-3.39.622-.29 1.202-.62 1.823-.91.248-.124.414-.165.414.207.166 2.233.704 4.424.953 6.657.041.454-.083.702-.456.95-.704.455-1.367.951-2.03 1.406a1.547 1.547 0 0 0-.662.827c1.284-.165 2.278-.744 3.355-1.364.248 1.57.497 3.06.745 4.548v.165c.332 1.943.332 1.943-1.408 2.77a70.001 70.001 0 0 1-9.444 3.514c-.29.083-.538.207-.994.331.663.248 1.16.124 1.657.041 3.521-.62 6.917-1.736 10.065-3.472.539-.29.663-.249.746.372.124 1.033.29 2.067.621 3.06.124.371 0 .454-.29.62-.497.289-1.035.537-1.533.868-.372.248-.704.578-.579 1.074.124.496.538.662.952.827.166.083.373.083.663.166-.331.29-.621.496-.87.744-.414.413-.828.827-.621 1.447.166.62.745.537 1.243.661-.249.662-.663 1.282-.415 2.026.125.331.415.538.87.703-.828.455-1.532.786-2.237 1.2-.952.578-2.029.909-2.858 1.736-.29.289-.621-.207-1.035-.124.29-.373.538-.662.745-.993.497-.868.207-1.488-.787-1.612-1.822-.207-3.686-.455-5.55-.124-.539.082-.704.041-.746-.538-.041-.785-.787-1.157-1.656-.826a12.818 12.818 0 0 0-3.148 1.695c-1.16.826-2.361 1.653-3.397 2.646-.124.124-.29.372-.456 0-.207-.496-.662-.496-1.118-.414-.58.083-1.284.372-1.698.166-.456-.207-.29-1.034-.414-1.572-.787-3.1-1.243-6.284-1.74-9.467-.042-.372.083-.538.414-.62.373-.125.787-.29.953-.745-.249-.165-.539-.248-.787-.165-.704.165-.746-.207-.787-.786-.166-2.108-.29-4.217-.332-6.367 0-.496.083-.826.622-.992.248-.083.662-.207.58-.537-.083-.331-.497-.29-.746-.249-.373.042-.414-.123-.373-.413 0-.496.042-.992.042-1.447 0-1.116 0-1.116 1.077-1.323.248-.041.497-.083.704-.083 1.201-.124 1.16-.124 1.242 1.117.415 6.532.705 13.106 2.486 19.473.207.744.455 1.447.745 2.15.124.33.249.868.746.661.497-.165.248-.62.165-.95-.787-2.812-1.449-5.665-1.863-8.559-.125-.91-.208-1.82-.332-2.77-.083-.496.042-.703.621-.744 2.072-.166 4.143-.372 6.089-1.158.497-.207.995-.413 1.409-.91-.456-.123-.829.042-1.16.125a44.29 44.29 0 0 1-6.213 1.033c-.622.083-.912-.041-.953-.785-.083-1.447-.248-2.853-.373-4.3-.041-.455.125-.538.539-.579 1.822-.207 3.521-.785 5.219-1.695-.539-.248-.953-.083-1.367-.041a109.94 109.94 0 0 0-3.935.785c-.414.083-.58 0-.58-.455 0-.661-.331-1.488-.041-1.901.331-.497 1.201.082 1.822 0 .124 0 .249 0 .373.04 1.45.497 2.444-.123 3.106-1.363.373-1.2 1.243-1.737 2.362-2.068Zm-12.385 1.86c-.539-.082-1.077-.123-1.45-.578-.166-.248-.456-.165-.663-.165a12.017 12.017 0 0 1-2.361-.331 19.256 19.256 0 0 1 3.397-3.887c4.183-3.514 7.538-7.731 10.438-12.361.331-.538.58-.62 1.16-.373 2.692 1.24 5.509 2.233 8.284 3.308.455.165.497.33.29.785-1.036 2.026-2.486 3.721-3.977 5.417-1.118 1.24-1.822 2.77-2.941 4.01-1.325 1.447-2.568 2.977-3.769 4.548-.166.207-.373.29-.663.248-2.568-.413-5.177-.207-7.745-.62Zm.082 19.598c.29.041.415.124.497.413.332 1.654.705 3.308 1.077 5.003.166.827-.165 1.282-1.077 1.282-.538.041-1.076 0-1.615.124-.124.041-.29 0-.331.082-.787.827-1.781.414-2.693.497-.414.04-.58-.166-.621-.538-.373-1.902-.953-3.72-1.243-5.623-.165-.95-.041-1.984-.787-2.976 2.403.785 4.557 1.364 6.793 1.736Zm-12.012 17.695c-2.816.29-5.674.248-8.45-.29-4.97-.991-7.58-3.679-8.408-8.888-.29-1.695-.497-3.39-.497-5.085.041-3.06 1.325-5.458 4.349-6.574a20.91 20.91 0 0 1 3.148-.868c.994-.207 1.864.082 2.692.578.746.414 1.492.91 2.196 1.406 1.698 1.158 3.562 1.447 5.467.703.87-.33 1.533-.91 1.947-1.737.124-.248.249-.454.58-.454.331 0 .414.29.497.537.331 1.034.704 2.067.994 3.142.539 2.191 1.036 4.383 1.533 6.533.124.496.041.703-.539.661-2.941-.124-5.84-.33-8.574-1.57-2.692-1.2-4.515-3.102-4.473-6.326-.456.082-.539.371-.58.702-.249 2.191 1.698 5.375 3.562 6.12 2.61 1.033 5.385 1.405 8.119 1.653 4.183.413 8.367.124 12.55-.579.414-.082.58-.041.704.455.414 1.902.704 3.845 1.077 5.747.083.413 0 .579-.414.703-5.675 1.53-11.515 2.853-17.48 3.431Zm90.588-21.416c.622-.827 1.201-1.654 1.823-2.48.083-.125.165-.456.373-.29.289.207.579.537.745.827.124.207-.207.248-.373.33-.29.125-.621.249-.87.414-.414.248-.662.62-.372 1.075.248.455.041.703-.332.91-.538.289-1.035.661-1.739.785.124-.62.414-1.116.745-1.571Zm-7.456-1.778c.29-.703.58-.62 1.077-.124.994.91 2.071 1.695 3.19 2.605-.207.124-.332.207-.456.248-1.118.496-1.118.496-1.532-.62-.415-1.117-.415-1.117-1.657-1.034-.332.041-.829.165-.994-.124-.166-.33.248-.661.372-.95Zm-4.307 69.541c-.332 1.943-.083 3.804 1.408 5.292a43.94 43.94 0 0 1 1.905 2.026c.704.744 1.119 1.571 1.036 2.646-.083 1.365-1.408 2.274-2.693 1.819-.787-.289-1.408-.827-1.988-1.364-1.532-1.364-2.734-3.018-3.976-4.631a2.262 2.262 0 0 1-.456-1.695c.207-1.364.166-2.728.124-4.093-.041-.744.208-.992.912-.827.207.042.414 0 .621 0 .911.083 1.781.166 2.651.248.331 0 .538.042.456.579Zm1.408-35.266c-.166.165-.456.248-.663 0-.165-.249-.083-.455.083-.662 1.16-1.199 2.113-2.563 2.651-4.176.041-.165.166-.33.331-.248.29.124.125.414.207.744-.372 1.696-1.325 3.143-2.609 4.342Zm4.432 26.584c.87-3.39 1.823-6.822 2.858-10.171 1.16-3.679 2.361-7.359 3.065-11.204.207-1.075.456-2.15.87-3.142.249-.579.539-1.117 1.077-1.489 0 .993-.29 1.82-.497 2.688-.58 2.15-.911 4.176-.29 6.491 1.533 5.499 3.562 10.791 5.343 16.207-4.1.413-8.242.62-12.426.62Zm17.728-36.797c-6.254 1.076-12.592 1.365-18.888 1.696-1.574.082-3.106-.207-4.68 0-.539.082-.539-.331-.58-.662-.125-2.274-.29-4.506-.332-6.78-.082-3.39-.124-6.78-.207-10.13 0-.496-.041-.992-.124-1.488-.041-.496-.249-.992.58-1.158.456-.082.456-.579.041-.868-.248-.165-.538-.248-.828-.372a29.744 29.744 0 0 1-5.385-2.398c-.663-.372-.828-.703-.414-1.488.953-1.696 1.74-3.473 2.527-5.21.207-.496.372-.661.787-.165 1.822 2.067 4.225 3.142 6.917 3.514.746.124.663.33.331.827-1.242 2.026-.994 2.522 1.409 2.522.455 0 .704.165.828.579.083.248.207.496.29.744.207.538.621.703 1.201.579.704-.166 1.367-.33 2.03-.62.373-.166.621-.166.621.413.083 1.075 0 2.109.042 3.184.041.289.041.578.124.91.041.247.124.537.414.537.249 0 .249-.331.29-.538.124-.827.124-1.695.041-2.522-.041-.455.042-.703.539-.827.87-.206 1.574-.744 2.361-1.157.538-.29.704-.786.538-1.323-.124-.455.083-.58.415-.703 1.864-.868 1.905-.951.497-2.522-.042-.042-.083-.124-.207-.331 3.023-.62 4.804-2.687 6.42-5.003.455-.661.663-.578 1.077-.041 1.16 1.488 2.734 2.605 4.018 3.97.414.454.414.702.124 1.24-1.201 2.108-3.355 3.059-5.302 4.216-1.367.827-1.45.786-1.201 2.357.87 5.375 1.532 10.791 3.106 16.042.249.785.456 1.57.787 2.315.29.413.332.579-.207.662Zm4.142 42.172c.332-.124.497-.083.58.289.042.248.166.496.29.744.911 2.274 2.61 3.391 5.012 3.556.911.083 1.823.207 2.775.372.746.124 1.326.455 1.781 1.034.373.496.415.826-.29 1.075-1.822.661-3.645 1.199-5.426.95-1.698 0-3.23-.124-4.722-.289-1.325-.165-1.822-.579-2.112-1.902-.332-1.488-.414-3.018-.87-4.465-.124-.372.166-.413.373-.496l2.609-.868Zm-10.562-60.032c-.911.082-1.823.165-2.734.29-.29.04-.456.165-.538.413-.415 1.199.124 1.943 1.367 1.943h.414c.497.082 1.16-.124 1.864-.166.414-.04.621-.289.621-.702 0-.29-.041-.58 0-.91 0-.703-.373-.95-.994-.868Zm-.29 1.612c-.456.042-.911.124-1.367.166-.331-.083-.787.206-.787-.414 0-.537.414-.372.704-.413.456-.083.912-.083 1.367-.124.249-.042.497 0 .497.372 0 .29-.083.413-.414.413ZM246.561 57.47c-.331.04-.497.206-.497.454.083.538.373.91.912.993.248.041.414-.166.372-.414-.041-.455-.29-.868-.787-1.033Zm5.385-1.158c-.041-.372-.124-.744-.58-.786-.373-.041-.538.207-.538.538 0 .372.207.703.621.744.331.083.456-.207.497-.496ZM77.481 49.034c-.25.083-.373-.165-.498-.33-.207-.29-.331-.58-.538-.869-.373-.578-.828-.62-1.325-.165-.166.165-.29.372-.415.579-.331.579-.373 1.199-.414 1.819 0 .413-.041.91-.538.95-.498.042-.498-.495-.622-.826-.083-.207-.165-.455-.248-.703-.207-.579-.663-.827-1.243-.827-.58 0-.953.248-1.243.744-.372.662-.372 1.406-.497 2.109-.041.248-.041.579-.372.62-.332.041-.539-.165-.663-.455-.207-.372-.373-.785-.621-1.157-.29-.496-.746-.827-1.326-.745-.58.083-.953.455-1.201.993a3.71 3.71 0 0 0-.332 1.488c.042.579.042 1.075-.33 1.571.413.207.745 0 1.117-.082 2.279-.662 4.474-1.53 6.794-2.068 1.698-.372 3.479-.537 5.136-1.116.538-.207.58-.413.414-.868-.207-.62-.704-1.034-.787-1.695 0 .165-.083.33-.041.496 0 .207.041.455-.207.537Zm-9.942 2.936c-.207.124-.455.206-.662.29a.491.491 0 0 1-.414-.042c-.083-.083-.125-.166-.083-.248.207-.372-.539-.992.331-1.158.124-.041.207-.083.331-.124.249-.041.497-.207.663.083.124.248-.248.33-.331.579.165.124.497-.042.538.289.042.124-.207.248-.373.33Zm3.563-.786c-.705 0-.332-.62-.332-.785-.041-.58.539-.538.912-.662.207.041.455-.041.414.29-.042.661-.456 1.157-.994 1.157Zm3.852-1.984c-.083-.372.414-.372.704-.496.166-.083.456-.124.538.082.125.331-.29.331-.414.538-.29-.083-.745.33-.828-.124Zm.953.868c-.25.083-.622.29-.787 0-.208-.496.414-.455.62-.703.29.041.746-.33.87.083.166.455-.372.496-.704.62Zm175.749 15.628a.45.45 0 0 0 .331.33c.622.125 1.119-.082 1.574-.495.415-.414.705-.869.373-1.613-.621.662-1.201 1.24-2.029 1.447-.207.042-.29.166-.249.331Zm4.101-11.742c-.953-2.522-2.403-4.796-4.846-5.912-3.811-1.736-7.829-1.612-11.723-.165-2.112.785-3.396 2.439-3.728 4.672-.082.454-.165.785-.579 1.075-1.45 1.033-2.113 2.439-2.071 4.217.082 2.356 1.035 4.3 2.609 5.995 1.698 1.86 3.976 2.852 6.089 4.051.29.166.704.248 1.035.248.497-.041.787.166 1.119.496 1.864 2.15 4.308 3.06 7.124 3.143.539 0 1.077 0 1.616-.124 2.526-.662 4.846-3.35 5.012-6.243.165-2.646-.456-5.251-1.45-7.732-.166-.372-.373-.785-.166-1.157.456-.91.29-1.737-.041-2.564Zm.538 9.592c-.041 2.026-.538 3.97-2.112 5.54-1.077 1.075-2.361 1.53-3.935 1.406-3.604-.33-6.089-2.15-7.663-5.333-.456-.91-.456-.91-1.326-.29-.207.124-.372.248-.579.166-.249-.124-.29-.373-.29-.62a4.366 4.366 0 0 1 .662-2.15c1.284-2.11 1.202-4.342.415-6.616-.125-.413-.829-.661-.498-1.157.208-.331.746-.455 1.119-.62 2.692-1.158 5.467-2.026 8.491-1.282.829.207 1.45.661 1.947 1.282 2.32 2.687 3.728 5.87 3.769 9.674ZM59.918 55.112c.124.413.083.785-.083 1.199a4.891 4.891 0 0 0-.248 2.44c.082.413.041.743-.125 1.116-.455 1.116-.207 2.232.663 2.646.787.33.87.785.663 1.447-.042.165-.042.33-.042.496-.041 1.902 1.823 4.01 3.604 3.927.414 0 .58.124.787.414 2.402 3.473 5.84 4.63 9.9 4.176 2.32-.29 3.935-1.53 4.804-3.721.498-1.2.705-2.481.829-3.763.248-2.646-.29-5.25-.829-7.814-.082-.413-.207-.827.29-1.116.29-.165.332-.537.373-.868.166-1.365-.248-2.605-.953-3.763-.745-1.199-.745-1.199-2.07-.661-.373.165-.456.29-.25.661.498.91.83 1.86 1.078 2.853.414 1.985.828 4.01 1.201 6.037a16.91 16.91 0 0 1 .041 5.953c-.58 3.721-2.32 5.333-6.088 5.333-2.527 0-4.764-.702-6.586-2.646-1.989-2.15-2.858-4.713-3.19-7.524-.041-.248.042-.538-.207-.662-.248-.082-.373.207-.497.331-.663.62-1.408.661-2.195.372-.746-.248-.994-.91-.704-1.82.207-.66.538-.826 1.366-.62.456.125.746.042 1.036-.371.787-1.158 1.243-2.44 1.533-3.763.124-.454 0-.703-.539-.537-.745.207-1.45.372-2.195.537-.331.083-.829.414-.953-.082-.083-.372.497-.372.787-.455 1.16-.33 2.361-.62 3.562-.951a8.744 8.744 0 0 1-.952-1.695c-.249-.538-.622-.992-1.243-.992-.663 0-.994.537-1.243 1.075-.248.578-.331 1.157-.331 1.777 0 .207.083.58-.207.62-.331 0-.331-.372-.331-.62-.042-.827.041-1.612.455-2.315.87-1.571 2.486-1.571 3.438-.083.083.124.124.331.373.414.083-1.158.331-2.233 1.491-2.77 1.326-.62 2.154.207 2.941 1.116.331-1.034.538-2.026 1.657-2.398 1.077-.372 1.988.041 2.734.868.207-.454.331-.91.538-1.281.828-1.406 2.278-1.406 3.148-.083.124.207.207.372.456.413-.332-.248-.456-.661-.539-.992-.373-1.488-1.367-2.108-2.816-2.44-2.403-.578-4.681-1.488-7.166-1.694-.414-.042-.746.041-1.036.33-1.947 2.068-3.935 4.052-5.757 6.202-.166.207-.29.372-.539.744.539-.206.911-.372 1.243-.496 3.562-1.323 7.166-2.44 10.81-3.473 1.12-.33 2.279-.537 3.397-.827.249-.041.539-.124.622.207.041.33-.29.33-.497.413-.083.042-.125.042-.207.042a102.48 102.48 0 0 0-7.746 2.15 281.422 281.422 0 0 0-7.705 2.604c-.662.248-.704.497-.58 1.034.332 1.116.58 2.233.829 3.349Zm1.905-2.522c.083-.496.539-.455.87-.579.207 0 .456.041.373.207-.124.413-.58.455-.911.579-.166.082-.373-.042-.332-.207Zm-.165.91c.248-.538.745-.62 1.242-.703.207.041.497.041.373.248-.29.454-.828.578-1.284.703-.207.04-.373-.083-.331-.248Zm7.041-7.939c-.455.042-.911.042-1.367.124-.414.042-.828.083-.911.62-.083.331-.414.455-.746.455-.248 0-.414-.124-.538-.33-.166-.331-.041-.62.207-.869.414-.496.953-.744 1.574-.827.58-.04 1.16-.04 1.823-.082.372.124 1.16-.041 1.16.496-.042.62-.788.372-1.202.413Zm8.947 10.915c.166-.33-.165-.537-.414-.661-.207-.124-.456-.166-.58-.207-.663 0-1.118.207-1.491.579-.166.165-.332.33-.166.579.166.248.414.124.58-.042.414-.33.828-.454 1.367-.248.249.166.539.372.704 0Zm167.093-.868c-.704.207-1.243 1.034-1.201 2.026.124.29-.042.91.538.95.663.042.414-.537.497-.909.083-.454.124-.95.621-1.157.332-.124.497-.373.332-.703-.166-.29-.497-.29-.787-.207Zm6.296-2.191c0-.455-.373-.662-.787-.703-.746-.083-1.616.537-1.823 1.24-.041.248-.124.496.166.662.248.124.414-.083.538-.248.29-.372.58-.62.995-.58.497.125.869.166.911-.371Z"/></svg>