<svg xmlns="http://www.w3.org/2000/svg" width="408" height="387" fill="none"><path fill="#FF5940" d="m368.451 29.538 3.713-9.213-1.843-9.757 9.212 3.714 9.757-1.844-3.713 9.213 1.843 9.757-9.212-3.714-9.757 1.844Z"/><path fill="#fff" d="m387.043 122.889 3.714-9.212-1.844-9.757 9.213 3.714 9.757-1.844-3.714 9.212 1.844 9.758-9.213-3.714-9.757 1.843Z"/><path fill="#00BA6D" d="m77.256 387-8.869-4.472-9.88 1.016 4.471-8.868-1.016-9.882 8.869 4.472 9.88-1.016-4.471 8.869L77.256 387Z"/><path fill="#fff" d="M319.069 9.855a4.927 4.927 0 1 0 0-9.855 4.927 4.927 0 0 0 0 9.855ZM128.932 385.754a4.927 4.927 0 1 0 0-9.854 4.927 4.927 0 0 0 0 9.854Z"/><path fill="#F27DF9" d="M4.927 314.203a4.927 4.927 0 1 0 0-9.855 4.927 4.927 0 0 0 0 9.855Z"/><path fill="#0F172A" fill-opacity=".2" d="m187.35 163.411 17.928-57.77-6.338 48.896h60.486l-67.911 112.28 50.526-103.406H187.35Z"/><path fill="#0F172A" fill-opacity=".2" d="m186.625 163.411 17.928-57.77-6.338 48.896h60.486l-67.911 112.28 50.526-103.406h-54.691Z"/><path fill="#fff" d="M286.352 105.641H306.1l14.899 47.266-17.748 24.448c-3.078-3.622-1.63 0 0 0l-31.716 44.74h44.218l-6.384 46.171H190.884l67.605-112.853h-60.425l7.214-49.772h81.074Z"/><path fill="#fff" d="M205.454 105.641h-58.675l-70.984 94.17L70 239.29h71.714l-4.895 29.881h52.88l11.771-72.982H137l68.454-90.548Z"/></svg>