<svg xmlns="http://www.w3.org/2000/svg" width="292" height="104" fill="none"><path stroke="#000" stroke-linecap="round" stroke-width="3" d="M78.771 5.479c-.81 5.681-5.092 11.386-7.667 16.345-5.993 11.545-13.525 21.63-21.146 32.136a218.166 218.166 0 0 1-21.526 25.334m0 0A237.732 237.732 0 0 1 9.768 96.236c-1.377 1.125-5.485 5.881-7.5 5.762-.886-.052.71-2.4.719-2.41 2.468-3.238 5.955-5.595 9.134-8.062a606.946 606.946 0 0 1 16.311-12.232Zm0 0a573.863 573.863 0 0 1 25.982-17.743c7.272-4.68 14.453-9.81 21.977-14.074.55-.31 5.494-3.414 5.259-1.883-.514 3.343-2.804 6.6-4.429 9.474-1.584 2.803-2.75 5.619-3.902 8.616-.969 2.52-2.52 5.078-2.52 7.868 0 1.916 3.317-1.978 4.706-3.297 5.861-5.565 11.483-11.523 16.94-17.48a242.099 242.099 0 0 0 10.522-12.292m0 0c5.191-6.491 10.067-13.281 14.444-20.205 2.275-3.598 7.184-9.672 6.698-14.295-.251-2.393-6.949 4.463-7.307 4.931-6.029 7.902-9.894 15.943-12.677 25.487-.338 1.161-.77 2.569-1.158 4.082Zm0 0c-.934 3.64-1.621 7.892-.17 10.795 2.851 5.708 16.684-6.206 19.236-8.061 4.717-3.429 9.921-7.995 15.473-10.002 3.451-1.247 3.924-.748 4.29 2.77.505 4.849-.192 9.553-.249 14.379-.004.338-.311 2.96.138 3.186 1.733.867 6.079-2.141 7.335-2.909 9.569-5.847 17.944-13.527 27.291-19.725.373-.247 4.595-3.677 4.595-2.493 0 .55-1.241 1.496-.692 1.496 1.066 0 2.174-.738 3.211-.997.969-.243 2.152-.766 3.183-.471.405.115 1.934 4.232 2.574 4.986 5.054 5.951 16.537 5.155 20.123-2.022M253.865 2c-.172 1.636-1.389 3.134-2.138 4.54-1.578 2.96-2.979 5.96-4.819 8.775-4.976 7.612-9.102 15.81-14.525 23.101-5.331 7.168-11.014 14.04-16.687 20.937-1.129 1.372-2.283 2.798-3.47 4.236m0 0c-3.722 4.508-7.759 9.122-12.301 12.49l-.025.018c-.431.32-3.411 2.535-3.948 1.864-1.142-1.429 8.661-8.881 16.274-14.372Zm0 0c4.127-2.977 7.611-5.378 8.358-5.93 7.538-5.567 15.042-11.156 22.799-16.42.173-.118 7.051-4.904 7.051-3.858 0 1.67-3.485 4.92-4.372 6.305-1.452 2.267-3.084 4.732-3.619 7.41-.162.81-.948 2.05.258 2.329 1.241.286 3.06-.762 4.066-1.318 3.574-1.973 6.677-4.866 9.825-7.433 4.378-3.572 8.257-7.963 12.833-11.245.517-.37 3.085-2.398 3.455-.73 1.345 6.06 13.901 1.122 16.946-.211"/></svg>